<?xml version="1.0" standalone="no"?>
<!DOCTYPE svg PUBLIC "-//W3C//DTD SVG 20010904//EN"
 "http://www.w3.org/TR/2001/REC-SVG-20010904/DTD/svg10.dtd">
<svg version="1.0" xmlns="http://www.w3.org/2000/svg"
 width="257.000000pt" height="257.000000pt" viewBox="0 0 257.000000 257.000000"
 preserveAspectRatio="xMidYMid meet">
<metadata>
Created by potrace 1.14, written by Peter Selinger 2001-2017
</metadata>
<g transform="translate(0.000000,257.000000) scale(0.100000,-0.100000)"
fill="#000000" stroke="none">
<path d="M0 1285 l0 -1285 1285 0 1285 0 0 1285 0 1285 -1285 0 -1285 0 0
-1285z m2470 0 l0 -1195 -1195 0 -1195 0 0 1195 0 1195 1195 0 1195 0 0 -1195z"/>
<path d="M513 2038 c-123 -122 -223 -230 -223 -238 0 -9 36 -51 79 -94 72 -70
82 -76 102 -66 19 10 26 7 59 -25 l37 -36 -13 -57 c-15 -61 -10 -109 14 -157
8 -16 82 -99 164 -184 l148 -154 0 -145 c0 -165 10 -198 70 -238 34 -22 60
-60 60 -84 0 -6 -11 -10 -25 -10 -35 0 -45 -27 -45 -119 0 -59 4 -84 16 -95
13 -14 58 -16 333 -16 261 0 321 3 330 14 8 9 11 48 9 112 -3 97 -3 99 -28
102 -47 7 -45 20 13 81 31 33 62 72 69 88 7 17 13 109 16 245 l4 217 31 7 c31
7 92 64 215 202 56 63 56 64 61 142 7 88 30 133 72 138 28 4 169 139 169 162
0 9 -94 109 -209 224 -161 160 -213 206 -225 199 -19 -10 -146 -151 -146 -161
0 -5 5 -13 12 -20 10 -10 7 -17 -12 -36 -24 -24 -27 -24 -86 -11 -68 14 -128
8 -168 -18 -18 -13 -107 -107 -173 -186 -2 -3 -45 36 -96 86 -118 116 -150
131 -232 113 -53 -12 -60 -4 -30 32 14 16 25 35 25 42 0 14 -152 166 -166 166
-4 0 -108 -100 -231 -222z m127 -133 l-190 -190 -41 42 -42 41 188 191 189
192 43 -43 43 -43 -190 -190z m1365 95 l170 -170 -43 -42 -44 -43 -168 175
-169 175 36 37 c21 21 40 38 43 38 3 0 82 -76 175 -170z m-128 -132 l141 -142
-19 -27 c-40 -57 -58 -111 -52 -159 5 -44 3 -49 -42 -101 -81 -92 -157 -170
-180 -185 -23 -15 -23 -14 -30 38 -9 70 -35 110 -90 139 l-45 24 0 77 c0 72
-2 80 -29 110 -26 29 -36 33 -78 33 -47 0 -50 2 -67 39 -13 25 -30 43 -53 52
l-34 15 20 27 c44 62 138 151 166 158 25 6 119 -7 160 -22 7 -3 31 10 52 30
21 19 38 36 39 36 0 0 64 -64 141 -142z m-995 62 c8 0 21 7 28 15 7 8 28 15
48 15 31 0 47 -12 143 -106 104 -103 107 -107 92 -128 -13 -17 -24 -20 -58
-18 -52 5 -80 -9 -105 -51 -18 -29 -20 -51 -20 -217 l0 -185 -43 -23 c-28 -15
-52 -38 -67 -64 l-22 -40 -105 103 c-171 169 -180 188 -148 308 16 62 13 70
-44 126 l-41 39 137 138 137 138 26 -25 c14 -14 33 -25 42 -25z m442 -242 c14
-19 16 -65 16 -300 l0 -278 30 0 30 0 0 233 c0 242 2 256 43 270 11 4 25 -1
37 -13 19 -19 20 -34 20 -255 l0 -235 30 0 30 0 0 129 c0 72 4 132 9 135 5 4
21 -8 35 -25 l26 -31 0 -279 c0 -317 2 -307 -79 -380 -41 -37 -51 -53 -51 -78
l0 -31 -210 0 c-160 0 -212 3 -214 13 -3 6 -7 25 -11 42 -4 18 -29 50 -63 82
l-57 52 0 195 c0 192 0 195 24 220 14 14 28 26 33 26 4 0 8 -45 8 -100 l0
-100 30 0 30 0 0 304 c0 168 4 316 9 329 12 30 43 42 71 27 19 -10 20 -19 20
-270 l0 -260 35 0 35 0 0 288 c0 211 3 291 12 300 19 19 55 14 72 -10z m244
-1250 l3 -48 -280 0 -281 0 0 50 0 50 278 -2 277 -3 3 -47z"/>
</g>
</svg>
